<svg width="23" height="23" viewBox="0 0 23 23" fill="none" xmlns="http://www.w3.org/2000/svg">
<path fill-rule="evenodd" clip-rule="evenodd" d="M3.11117 2.34968C4.43933 0.951095 6.63633 1.21218 7.73483 2.76568L9.09983 4.69835C9.97842 5.94093 9.90475 7.66668 8.85608 8.77168L8.59067 9.0501C8.58992 9.05225 8.5892 9.05442 8.5885 9.0566C8.57442 9.0956 8.53975 9.22126 8.57442 9.4596C8.647 9.95251 9.02725 10.9557 10.5743 12.5839C12.1256 14.2176 13.0659 14.6022 13.5025 14.6737C13.6077 14.6973 13.7171 14.6946 13.821 14.6661L14.263 14.2003C15.2098 13.2036 16.6853 13.0075 17.8759 13.6922L19.9451 14.8838C21.7142 15.9022 22.1258 18.3928 20.7121 19.8813L19.1737 21.5008C18.6938 22.0068 18.0384 22.439 17.2292 22.5192C15.2532 22.7142 10.6761 22.4596 5.878 17.4069C1.3995 12.6933 0.549085 8.59293 0.441835 6.58985C0.388751 5.59968 0.829668 4.75143 1.41033 4.13935L3.11117 2.34968ZM6.40775 3.70385C5.85308 2.91951 4.85533 2.87185 4.28875 3.46876L2.58792 5.25843C2.23042 5.6376 2.04083 6.07093 2.06467 6.50318C2.15133 8.13901 2.85659 11.8678 7.05558 16.2878C11.4583 20.9245 15.5153 21.0545 17.0699 20.9007C17.3765 20.8714 17.6928 20.7003 17.9951 20.3818L19.5334 18.7622C20.1986 18.0623 20.0242 16.8035 19.1348 16.2922L17.0656 15.1005C16.5098 14.7809 15.8588 14.8795 15.4417 15.3193L14.9477 15.8393L14.3767 15.2966C14.9477 15.8383 14.9477 15.8393 14.9466 15.8404L14.9455 15.8415L14.9423 15.8458L14.9347 15.8523L14.9195 15.8675C14.874 15.9122 14.8247 15.9528 14.7722 15.9888C14.6855 16.0495 14.5707 16.1178 14.4244 16.1752C14.1254 16.2933 13.7311 16.3561 13.2425 16.277C12.2913 16.1232 11.0455 15.4396 9.39667 13.703C7.74133 11.961 7.10758 10.6621 6.96675 9.69468C6.89417 9.20285 6.95158 8.8096 7.05775 8.51168C7.11668 8.34566 7.20071 8.18965 7.30692 8.0491L7.33942 8.00901L7.35458 7.99276L7.36108 7.98518L7.36433 7.98193L7.3665 7.98085C7.3665 7.98085 7.3665 7.97868 7.94392 8.52576L7.36758 7.97868L7.6785 7.65151C8.16058 7.14343 8.231 6.28326 7.77383 5.63651L6.40775 3.70385Z" fill="black"/>
<path d="M12.365 1.03665C12.3998 0.823996 12.5176 0.633841 12.6924 0.507918C12.8673 0.381995 13.085 0.330592 13.2977 0.364988C13.3248 0.370404 13.4136 0.386654 13.4602 0.397488C13.5523 0.416988 13.6812 0.449488 13.8416 0.494988C14.1633 0.589238 14.6129 0.744154 15.1524 0.991154C16.2314 1.48624 17.6668 2.35182 19.1575 3.8414C20.6481 5.33207 21.5137 6.76857 22.0088 7.84757C22.2558 8.38707 22.4096 8.83557 22.5039 9.1584C22.5514 9.32061 22.5922 9.4847 22.6263 9.65024L22.6317 9.68382C22.6674 9.89836 22.6173 10.1183 22.4923 10.2963C22.3672 10.4742 22.1772 10.5959 21.9633 10.635C21.7512 10.6694 21.5341 10.6184 21.3594 10.4932C21.1848 10.3679 21.067 10.1785 21.0316 9.96657C21.0095 9.84684 20.9802 9.72855 20.9439 9.61232C20.8332 9.24027 20.6956 8.87676 20.5322 8.52465C20.1097 7.60382 19.3492 6.33199 18.0081 4.99082C16.668 3.64965 15.3951 2.89024 14.4742 2.46774C14.1225 2.30439 13.7593 2.16681 13.3876 2.05607C13.2737 2.02391 13.1588 1.99501 13.0431 1.9694C12.8301 1.93423 12.6395 1.81669 12.5124 1.64218C12.3853 1.46766 12.332 1.25017 12.3639 1.03665H12.365Z" fill="black"/>
<path fill-rule="evenodd" clip-rule="evenodd" d="M12.6099 4.77416C12.6391 4.6715 12.6883 4.5756 12.7545 4.49194C12.8208 4.40828 12.9029 4.33851 12.9962 4.28659C13.0895 4.23468 13.192 4.20165 13.2981 4.1894C13.4041 4.17714 13.5115 4.18589 13.6141 4.21516L13.391 4.99624L13.6152 4.21624H13.6174L13.6217 4.21732L13.6293 4.21949L13.651 4.22707C13.7364 4.25569 13.8206 4.28786 13.9034 4.32349C14.0616 4.39066 14.2771 4.49466 14.5426 4.65174C15.0734 4.96591 15.796 5.48591 16.6464 6.33741C17.4968 7.18782 18.019 7.91149 18.3321 8.44124C18.4891 8.70666 18.5931 8.92224 18.6614 9.08041C18.6971 9.16316 18.7292 9.24737 18.7578 9.33282L18.7643 9.35449L18.7665 9.36316L18.7676 9.36641V9.36857L17.9876 9.59282L18.7686 9.36966C18.8293 9.57652 18.8052 9.799 18.7018 9.98815C18.5984 10.1773 18.4241 10.3176 18.2172 10.3782C18.0104 10.4389 17.7879 10.4148 17.5987 10.3114C17.4096 10.208 17.2693 10.0337 17.2086 9.82682L17.2054 9.81599C17.1292 9.62733 17.0387 9.44479 16.9346 9.26999C16.6919 8.86157 16.2564 8.24407 15.4981 7.48574C14.7397 6.72741 14.1222 6.29191 13.7149 6.05032C13.5401 5.94622 13.3575 5.85568 13.1689 5.77949L13.1581 5.77516C12.9532 5.71386 12.7808 5.57428 12.6782 5.38669C12.5756 5.19911 12.551 4.97971 12.6099 4.77416Z" fill="black"/>
</svg>
