<svg width="138" height="107" viewBox="0 0 138 107" fill="none" xmlns="http://www.w3.org/2000/svg">
<path d="M44.2466 77.0525L117.269 3.43148C119.538 1.14382 122.426 0 125.933 0C129.439 0 132.327 1.14382 134.596 3.43148C136.865 5.71914 138 8.6307 138 12.1662C138 15.7016 136.865 18.6132 134.596 20.9009L52.9103 103.257C50.435 105.752 47.5471 107 44.2466 107C40.9462 107 38.0583 105.752 35.583 103.257L3.40358 70.8134C1.13452 68.5258 0 65.6142 0 62.0787C0 58.5432 1.13452 55.6317 3.40358 53.344C5.67264 51.0564 8.56054 49.9125 12.0673 49.9125C15.574 49.9125 18.4619 51.0564 20.7309 53.344L44.2466 77.0525Z" fill="#80DA62"/>
</svg>
